<svg xmlns="http://www.w3.org/2000/svg" viewBox="0 0 127.8 127.8"><title>Recurso 2</title><g id="Capa_2" data-name="Capa 2"><g id="Capa_1-2" data-name="Capa 1"><path d="M115,25.5a10.59,10.59,0,0,0,2-6.1,10.38,10.38,0,0,0-16.9-8.2A63.95,63.95,0,1,0,115,25.5Z" style="fill:#fff"/><path d="M121.7,61.1a2.77,2.77,0,0,0-.1-.9c0-.6-.1-1.2-.1-1.9,0-.3-.1-.6-.1-1-.1-.6-.1-1.2-.2-1.8,0-.3-.1-.6-.1-.9a15.52,15.52,0,0,0-.4-2.1c0-.2-.1-.3-.1-.5-.2-.9-.4-1.7-.6-2.6-.1-.2-.1-.5-.2-.7-.2-.6-.3-1.2-.5-1.8L119,46c-.2-.5-.4-1.1-.6-1.6l-.3-.9c-.2-.6-.5-1.2-.7-1.7-.1-.2-.2-.5-.3-.7a16.27,16.27,0,0,0-1.1-2.3c-.1-.2-.2-.3-.2-.5l-.9-1.8c-.1-.3-.3-.5-.4-.8a10.93,10.93,0,0,1-.8-1.5c-.2-.3-.3-.5-.5-.8l-.9-1.5c-.2-.2-.3-.5-.5-.7l-1.5-2.1h0a11.06,11.06,0,0,1-3.7.7A10.48,10.48,0,0,1,96.2,19.3a11.27,11.27,0,0,1,.5-3.2c-.5-.3-1-.7-1.5-1-.2-.1-.3-.2-.5-.3l-1.5-.9c-.2-.1-.3-.2-.5-.3-1.6-.9-3.2-1.7-4.8-2.5a5.94,5.94,0,0,1-.8-.4c-.4-.2-.9-.4-1.3-.6s-.7-.3-1-.4-.8-.3-1.3-.5a17.23,17.23,0,0,0-2.1-.7l-1.1-.3c-.5-.1-.9-.3-1.4-.4l-1.1-.3a8.33,8.33,0,0,1-1.5-.4c-.3-.1-.6-.1-1-.2a18.66,18.66,0,0,0-2.5-.4,1.27,1.27,0,0,1-.6-.1,13.4,13.4,0,0,1-2-.1c-.3,0-.6-.1-.9-.1a12.1,12.1,0,0,0-1.9-.1h-.8c-.9,0-1.8-.1-2.7-.1A58,58,0,0,0,6,64a57.7,57.7,0,0,0,57.7,57.7h.2a58,58,0,0,0,57.9-57.9C121.8,62.9,121.7,62,121.7,61.1Z" style="fill:#009de0"/><path d="M106.6,13.8a5.59,5.59,0,0,0-5.6,5.6,5.66,5.66,0,0,0,5.6,5.6,5.6,5.6,0,1,0,0-11.2Z" style="fill:#009de0"/><path d="M33.9,63.4c0,7.1-2.2,10.8-6.5,10.8a8.55,8.55,0,0,1-7.1-4V57.1c1.9-2.3,4.2-3.8,7-3.8,4.1,0,6.6,3.5,6.6,10.1m3.7-.1C37.6,54,33.4,50,28.2,50a10.37,10.37,0,0,0-7.9,3.8V50.6H16.5V86.5l3.8-2.1V74a9.4,9.4,0,0,0,7.4,3.5c5.5,0,9.9-4.8,9.9-14.2" style="fill:#fff"/><path d="M57.7,70.5a9.33,9.33,0,0,1-7.6,4c-3.2,0-5.4-1.7-5.4-5.6,0-3.3,2.3-5.2,6.2-5.2a13.43,13.43,0,0,1,6.8,1.5Zm3.8,6.4V58.6c0-6.1-3.6-8.5-9.2-8.5a19.37,19.37,0,0,0-8.8,2.1l1.4,3.1a13.18,13.18,0,0,1,7.2-2c3.9,0,5.7,1.9,5.7,5.8v3.1a13.7,13.7,0,0,0-6.6-1.5c-5.2,0-10.1,2.5-10.1,8.4,0,6.4,4.3,8.4,8.4,8.4a10.69,10.69,0,0,0,8.2-3.8v3.2Z" style="fill:#fff"/><path d="M81.1,50.7A10.08,10.08,0,0,0,77,50a7.7,7.7,0,0,0-6.5,3.8V50.5H66.7V76.8h3.8V61.5c0-5,2.1-8,5.7-8a7.61,7.61,0,0,1,4,1Z" style="fill:#fff"/><rect x="85.2" y="50.6" width="3.8" height="26.3" style="fill:#fff"/><path d="M111.2,70.1c0-4.7-2.9-6.2-7.9-8.4-4.5-2-5.8-2.9-5.8-5.1,0-1.9,1.6-3.3,4.4-3.3a9.29,9.29,0,0,1,6.6,2.4l2.1-2.8a12.65,12.65,0,0,0-8.4-2.8c-4.8,0-8.2,2.7-8.2,6.7,0,4.2,2.2,5.8,7.5,8.1,4.7,2,6.2,3.2,6.2,5.4,0,2.6-1.7,4.1-5.3,4.1a11.16,11.16,0,0,1-7.2-2.9L93,74.3a14.9,14.9,0,0,0,9.3,3.4c4.5-.2,8.9-2.5,8.9-7.6" style="fill:#fff"/><path d="M35.4,97.9a4.18,4.18,0,0,1,1.2-.8,3.42,3.42,0,0,1,2.8,0,2.55,2.55,0,0,1,1.2.8l.5.5-1,1-.5-.5a3,3,0,0,0-.7-.5,2.35,2.35,0,0,0-.8-.2,1.88,1.88,0,0,0-.8.2,2.62,2.62,0,0,0-1.2,1.2,2.35,2.35,0,0,0-.2.8,1.88,1.88,0,0,0,.2.8,1.79,1.79,0,0,0,.5.7,2.36,2.36,0,0,0,1.6.7,1.88,1.88,0,0,0,.8-.2,1.79,1.79,0,0,0,.7-.5l.5-.5,1,1-.5.5a4.18,4.18,0,0,1-1.2.8,3.19,3.19,0,0,1-1.4.3,3.53,3.53,0,0,1-1.4-.3,8.34,8.34,0,0,1-1.2-.8,4.18,4.18,0,0,1-.8-1.2,3.19,3.19,0,0,1-.3-1.4,3.53,3.53,0,0,1,.3-1.4,9.82,9.82,0,0,1,.7-1" style="fill:#fff"/><path d="M47.4,101.6l1,1-.5.5a3.6,3.6,0,0,1-1.2.8,3.42,3.42,0,0,1-2.8,0,3.68,3.68,0,0,1-2-2,3.42,3.42,0,0,1,0-2.8,3.68,3.68,0,0,1,2-2,3.42,3.42,0,0,1,2.8,0,2.55,2.55,0,0,1,1.2.8l.5.5-4.1,4.1a1.91,1.91,0,0,0,1.3.2,2.28,2.28,0,0,0,1.2-.6ZM43.7,99a2.36,2.36,0,0,0-.7,1.6,3.55,3.55,0,0,0,.2,1l.6-.6.8-.8.9-.9.6-.6a1.91,1.91,0,0,0-1.3-.2c-.3-.1-.7.1-1.1.5" style="fill:#fff"/><path d="M48.9,100.5a3.19,3.19,0,0,1,.3-1.4,8.34,8.34,0,0,1,.8-1.2,3.6,3.6,0,0,1,1.2-.8,3.42,3.42,0,0,1,2.8,0,4.18,4.18,0,0,1,1.2.8,3.6,3.6,0,0,1,.8,1.2,3.19,3.19,0,0,1,.3,1.4v3.7H54.9v-3.7a1.88,1.88,0,0,0-.2-.8,2.62,2.62,0,0,0-1.2-1.2,2.12,2.12,0,0,0-1.8,0,2.62,2.62,0,0,0-1.2,1.2,2.35,2.35,0,0,0-.2.8v3.7H48.9Z" style="fill:#fff"/><path d="M57.7,97.9a4.18,4.18,0,0,1,1.2-.8,3.42,3.42,0,0,1,2.8,0,2.55,2.55,0,0,1,1.2.8l.5.5-1,1-.5-.5a3,3,0,0,0-.7-.5,2.35,2.35,0,0,0-.8-.2,1.88,1.88,0,0,0-.8.2,2.62,2.62,0,0,0-1.2,1.2,2.35,2.35,0,0,0-.2.8,1.88,1.88,0,0,0,.2.8,1.79,1.79,0,0,0,.5.7,2.36,2.36,0,0,0,1.6.7,1.88,1.88,0,0,0,.8-.2,1.79,1.79,0,0,0,.7-.5l.5-.5,1,1-.5.5a4.18,4.18,0,0,1-1.2.8,3.19,3.19,0,0,1-1.4.3,3.53,3.53,0,0,1-1.4-.3,8.34,8.34,0,0,1-1.2-.8,4.18,4.18,0,0,1-.8-1.2,3.19,3.19,0,0,1-.3-1.4,3.53,3.53,0,0,1,.3-1.4,3.65,3.65,0,0,1,.7-1" style="fill:#fff"/><path d="M63.9,100.5a3.19,3.19,0,0,1,.3-1.4,8.34,8.34,0,0,1,.8-1.2,3.6,3.6,0,0,1,1.2-.8,3.42,3.42,0,0,1,2.8,0,4.18,4.18,0,0,1,1.2.8,3.6,3.6,0,0,1,.8,1.2,3.42,3.42,0,0,1,0,2.8,4.18,4.18,0,0,1-.8,1.2,3.6,3.6,0,0,1-1.2.8,3.42,3.42,0,0,1-2.8,0,8.34,8.34,0,0,1-1.2-.8,3.6,3.6,0,0,1-.8-1.2,3.19,3.19,0,0,1-.3-1.4m1.5,0a2.92,2.92,0,0,0,.2.9,2.62,2.62,0,0,0,1.2,1.2,2.12,2.12,0,0,0,1.8,0,2.62,2.62,0,0,0,1.2-1.2,2.92,2.92,0,0,0,.2-.9,1.88,1.88,0,0,0-.2-.8,2.62,2.62,0,0,0-1.2-1.2,2.13,2.13,0,0,0-1.8,0,2.62,2.62,0,0,0-1.2,1.2,1.08,1.08,0,0,0-.2.8" style="fill:#fff"/><path d="M78.3,96.9v1.4H73.9a.7.7,0,1,0,0,1.4h2.9a1.88,1.88,0,0,1,.8.2,2.62,2.62,0,0,1,1.2,1.2,2.35,2.35,0,0,1,.2.8,2.92,2.92,0,0,1-.2.9,2.62,2.62,0,0,1-1.2,1.2,2.35,2.35,0,0,1-.8.2H72.4v-1.4h4.4a.7.7,0,1,0,0-1.4H73.9a2.92,2.92,0,0,1-.9-.2,2.62,2.62,0,0,1-1.2-1.2,2.92,2.92,0,0,1-.2-.9,1.88,1.88,0,0,1,.2-.8,1.79,1.79,0,0,1,.5-.7,4.23,4.23,0,0,1,.7-.5,2.92,2.92,0,0,1,.9-.2Z" style="fill:#fff"/><path d="M86.7,96.9v3.6a3.19,3.19,0,0,1-.3,1.4,4.18,4.18,0,0,1-.8,1.2,3.6,3.6,0,0,1-1.2.8,3.42,3.42,0,0,1-2.8,0,8.34,8.34,0,0,1-1.2-.8,3.6,3.6,0,0,1-.8-1.2,3.19,3.19,0,0,1-.3-1.4V96.9h1.5v3.6a2.92,2.92,0,0,0,.2.9,2.62,2.62,0,0,0,1.2,1.2,2.13,2.13,0,0,0,1.8,0,2.62,2.62,0,0,0,1.2-1.2,2.92,2.92,0,0,0,.2-.9V96.9Z" style="fill:#fff"/><path d="M94.4,93.9v6.6a3.19,3.19,0,0,1-.3,1.4,4.18,4.18,0,0,1-.8,1.2,3.6,3.6,0,0,1-1.2.8,3.42,3.42,0,0,1-2.8,0,8.34,8.34,0,0,1-1.2-.8,3.6,3.6,0,0,1-.8-1.2,3.42,3.42,0,0,1,0-2.8,8.34,8.34,0,0,1,.8-1.2,3.6,3.6,0,0,1,1.2-.8,3.19,3.19,0,0,1,1.4-.3h2.2V93.9Zm-3.6,8.8a1.88,1.88,0,0,0,.8-.2,2.62,2.62,0,0,0,1.2-1.2,2.92,2.92,0,0,0,.2-.9V98.2H90.8a2.92,2.92,0,0,0-.9.2,2.62,2.62,0,0,0-1.2,1.2,2.35,2.35,0,0,0-.2.8,2.92,2.92,0,0,0,.2.9,2.62,2.62,0,0,0,1.2,1.2,1.49,1.49,0,0,0,.9.2" style="fill:#fff"/></g></g></svg>