<svg xmlns="http://www.w3.org/2000/svg" viewBox="0 0 320.12 320"><title>Recurso 1</title><g id="Capa_2" data-name="Capa 2"><g id="Capa_1-2" data-name="Capa 1"><path d="M23.87,160.06A136.13,136.13,0,1,0,160.06,23.87,136.13,136.13,0,0,0,23.87,160.06M0,160.06A160,160,0,0,1,160.06,0c88.33,0,160.06,71.61,160.06,159.94A160.06,160.06,0,0,1,0,160.06" style="fill:#fff"/><path d="M15.68,160.06A144.37,144.37,0,0,1,160.06,15.68c79.68,0,144.37,64.58,144.37,144.26a144.38,144.38,0,0,1-288.75.12" style="fill:#ef7e00"/><path d="M241,48.78A26.18,26.18,0,1,1,267.19,75,26.23,26.23,0,0,1,241,48.78" style="fill:#fff"/><path d="M253,48.78a14.07,14.07,0,1,1,14.07,14.07A14.05,14.05,0,0,1,253,48.78" style="fill:#ef7e00"/><path d="M81.87,234.09a10.16,10.16,0,0,1,3.23-2.19,10.21,10.21,0,0,1,7.38,0,7.63,7.63,0,0,1,3.23,2.19l1.39,1.38-2.66,2.77-1.38-1.38a5.2,5.2,0,0,0-2-1.27,5.44,5.44,0,0,0-4.38,0,7.09,7.09,0,0,0-2,1.27,6,6,0,0,0-1.39,2,5.08,5.08,0,0,0-.46,2.19,6.11,6.11,0,0,0,6,6,7.41,7.41,0,0,0,2.3-.47,6.91,6.91,0,0,0,2-1.26l1.39-1.39,2.65,2.77L95.83,248a14.17,14.17,0,0,1-3.23,2.19,10.08,10.08,0,0,1-7.38,0A8.37,8.37,0,0,1,82,248a14.06,14.06,0,0,1-2.19-3.23,10.21,10.21,0,0,1,0-7.38,7.45,7.45,0,0,1,2.07-3.34" style="fill:#fff"/><path d="M104.25,237a5.65,5.65,0,0,0-1.73,4.15,5,5,0,0,0,.69,2.54l1.61-1.61c.69-.7,1.5-1.5,2.31-2.31l2.3-2.31a21.39,21.39,0,0,0,1.73-1.73,6.13,6.13,0,0,0-3.46-.57,6.33,6.33,0,0,0-3.45,1.84m9.8,7,2.76,2.76-1.38,1.39a8.62,8.62,0,0,1-3.23,2.07,10.52,10.52,0,0,1-3.8.81,9,9,0,0,1-3.81-.81,11.06,11.06,0,0,1-3.23-2.07,11.54,11.54,0,0,1-2.19-3.23,10.47,10.47,0,0,1-.69-3.69,10,10,0,0,1,.69-3.69,8.44,8.44,0,0,1,2.19-3.23,12.44,12.44,0,0,1,3.23-2.19,10.47,10.47,0,0,1,3.69-.69,10,10,0,0,1,3.69.69,8.44,8.44,0,0,1,3.23,2.19l1.38,1.38-10.84,11a6,6,0,0,0,3.46.58,5.93,5.93,0,0,0,3.23-1.73Z" style="fill:#fff"/><path d="M118.89,237.2a11.22,11.22,0,0,1,2.08-3.11,9.39,9.39,0,0,1,3.11-2.08,8.37,8.37,0,0,1,3.8-.69,10.17,10.17,0,0,1,3.81.69,11.44,11.44,0,0,1,3.11,2.08,9.09,9.09,0,0,1,2.08,3.11,10.29,10.29,0,0,1,.81,3.81v9.8h-3.92V241a5.12,5.12,0,0,0-.47-2.31,4.12,4.12,0,0,0-1.26-1.84,5.4,5.4,0,0,0-1.85-1.27,7.47,7.47,0,0,0-2.31-.46,5.1,5.1,0,0,0-2.3.46,5.31,5.31,0,0,0-1.85,1.27,6.73,6.73,0,0,0-1.27,1.84A5.25,5.25,0,0,0,122,241v9.8h-3.92V241a8.36,8.36,0,0,1,.81-3.81" style="fill:#fff"/><path d="M142,234.09a10.16,10.16,0,0,1,3.23-2.19,10.21,10.21,0,0,1,7.38,0,8.37,8.37,0,0,1,3.23,2.19l1.38,1.38-2.76,2.77L153,236.86a5.13,5.13,0,0,0-2-1.27,4.93,4.93,0,0,0-2.19-.46,4.61,4.61,0,0,0-2.19.46,7.24,7.24,0,0,0-2,1.27,4.37,4.37,0,0,0-1.27,2A7.46,7.46,0,0,0,143,241a5.61,5.61,0,0,0,.46,2.31,12,12,0,0,0,1.27,2A5.75,5.75,0,0,0,149,247a7.47,7.47,0,0,0,2.3-.47,6.91,6.91,0,0,0,2-1.26l1.39-1.39,2.77,2.77L156,248a14,14,0,0,1-3.23,2.19,10.27,10.27,0,0,1-3.69.7,9.84,9.84,0,0,1-3.69-.7,7.69,7.69,0,0,1-3.23-2.19,14.39,14.39,0,0,1-2.19-3.23,10.21,10.21,0,0,1,0-7.38,6.38,6.38,0,0,1,2-3.34" style="fill:#fff"/><path d="M162.59,241.12a5.12,5.12,0,0,0,.47,2.31,5.75,5.75,0,0,0,1.26,2,6.71,6.71,0,0,0,1.85,1.27,5.45,5.45,0,0,0,2.31.46,5.1,5.1,0,0,0,2.3-.46,5.68,5.68,0,0,0,2-1.27,5.77,5.77,0,0,0,1.27-2,7.47,7.47,0,0,0,.46-2.31,5.1,5.1,0,0,0-.46-2.3,5.31,5.31,0,0,0-1.27-1.85,4.9,4.9,0,0,0-2-1.27,6,6,0,0,0-4.61,0,5.54,5.54,0,0,0-1.85,1.27,6.67,6.67,0,0,0-1.26,1.85,5.1,5.1,0,0,0-.47,2.3m-3.92,0a8.29,8.29,0,0,1,.81-3.8,9.61,9.61,0,0,1,5.19-5.19,10.84,10.84,0,0,1,7.61,0,14.68,14.68,0,0,1,3.11,2.08,9.09,9.09,0,0,1,2.08,3.11,9.34,9.34,0,0,1,0,7.61,8.08,8.08,0,0,1-2.08,3.11,9.09,9.09,0,0,1-3.11,2.08,8.64,8.64,0,0,1-3.8.81,8.31,8.31,0,0,1-3.81-.81,14.68,14.68,0,0,1-3.11-2.08,9.09,9.09,0,0,1-2.08-3.11,8.65,8.65,0,0,1-.81-3.81" style="fill:#fff"/><path d="M197.3,231.21v3.92H185.43a1.95,1.95,0,0,0-2,2,2,2,0,0,0,2,2h7.84a5.07,5.07,0,0,1,2.3.46,6.57,6.57,0,0,1,1.85,1.27,4.74,4.74,0,0,1,1.27,1.84,5.28,5.28,0,0,1,.46,2.31,5.61,5.61,0,0,1-.46,2.31,4.06,4.06,0,0,1-1.27,1.84,10.61,10.61,0,0,1-1.85,1.27,5.07,5.07,0,0,1-2.3.46H181.51v-3.92h11.87a2,2,0,0,0,0-3.92h-7.84a7.46,7.46,0,0,1-2.3-.46,10.61,10.61,0,0,1-1.85-1.27,5.77,5.77,0,0,1-1.27-2,5.82,5.82,0,0,1,1.27-6.46,6.16,6.16,0,0,1,1.85-1.15,5.1,5.1,0,0,1,2.3-.46Z" style="fill:#fff"/><path d="M220.14,231.21V241a8.29,8.29,0,0,1-.81,3.8,14.5,14.5,0,0,1-2.08,3.12,9.21,9.21,0,0,1-3.11,2.07,10.73,10.73,0,0,1-3.8.81,8.65,8.65,0,0,1-3.81-.81,8.52,8.52,0,0,1-3.11-2.07,9,9,0,0,1-2.08-3.12,10.68,10.68,0,0,1-.81-3.8v-9.8h3.92V241a5.78,5.78,0,0,0,1.73,4.15,6.71,6.71,0,0,0,1.85,1.27,6,6,0,0,0,4.61,0,5.31,5.31,0,0,0,1.85-1.27,5.24,5.24,0,0,0,1.26-1.84,5.14,5.14,0,0,0,.47-2.31v-9.8Z" style="fill:#fff"/><path d="M231.21,247a7.47,7.47,0,0,0,2.3-.47,5.19,5.19,0,0,0,1.85-1.26,5.4,5.4,0,0,0,1.27-1.85,5.25,5.25,0,0,0,.46-2.31v-6h-5.88a5.11,5.11,0,0,0-2.31.46,5.27,5.27,0,0,0-1.84,1.27,4.06,4.06,0,0,0-1.27,1.84,5.11,5.11,0,0,0-.46,2.31,7.53,7.53,0,0,0,.46,2.31,4.06,4.06,0,0,0,1.27,1.84,6.52,6.52,0,0,0,1.84,1.27,5.33,5.33,0,0,0,2.31.58m9.8-23.64V241a8.29,8.29,0,0,1-.81,3.8,9.15,9.15,0,0,1-2.07,3.12A9.25,9.25,0,0,1,235,250a10.73,10.73,0,0,1-3.8.81,8.31,8.31,0,0,1-3.81-.81,9.78,9.78,0,0,1-3.11-2.07,11.49,11.49,0,0,1-2.19-3.12,8.61,8.61,0,0,1-.81-3.8,8.36,8.36,0,0,1,.81-3.81,9.58,9.58,0,0,1,2.19-3.11A9.39,9.39,0,0,1,227.4,232a10.2,10.2,0,0,1,3.81-.8h5.88v-7.84Z" style="fill:#fff"/><path d="M179.66,138.72c3,3.23,4.61,7.62,4.61,13.15V174h-4.38V151.87c0-4.38-1.15-7.84-3.46-10.26a11.65,11.65,0,0,0-8.88-3.69,12.07,12.07,0,0,0-9,3.69c-2.31,2.42-3.46,6-3.46,10.61V174h-4.38V152.45c0-5.88,1.61-10.5,4.61-13.73a16.1,16.1,0,0,1,12.11-4.84,16.53,16.53,0,0,1,12.22,4.84" style="fill:#fff"/><path d="M179.66,138.72l-.92.81a13.15,13.15,0,0,1,3.23,5.31,21.93,21.93,0,0,1,1.15,7V173h-2.07V152a17.7,17.7,0,0,0-.93-6.23,11.47,11.47,0,0,0-2.88-4.84h0a10.56,10.56,0,0,0-4.27-3,14.64,14.64,0,0,0-10.84,0,14.13,14.13,0,0,0-4.38,3h0a12.27,12.27,0,0,0-2.77,5,22.63,22.63,0,0,0-.92,6.46V173H152V152.56a24.57,24.57,0,0,1,1-7.49,14.32,14.32,0,0,1,3.23-5.42h0a14,14,0,0,1,5-3.35,15.7,15.7,0,0,1,6.34-1.15,15.48,15.48,0,0,1,6.23,1.15,13,13,0,0,1,5,3.35h0l.92-.93.81-.8A16.56,16.56,0,0,0,174.7,134a18.17,18.17,0,0,0-7.15-1.27A19.72,19.72,0,0,0,160.4,134a16.43,16.43,0,0,0-5.76,3.92h0a16.27,16.27,0,0,0-3.69,6.34,25.87,25.87,0,0,0-1.27,8.19v22.83h6.69V152.33a17.54,17.54,0,0,1,.8-5.76,9.36,9.36,0,0,1,2.31-4h0a10.42,10.42,0,0,1,3.46-2.54,11.84,11.84,0,0,1,4.61-.8,10.94,10.94,0,0,1,4.5.8,12.64,12.64,0,0,1,3.58,2.42h0a11.84,11.84,0,0,1,2.3,4,15.65,15.65,0,0,1,.81,5.42v23.41h6.69V151.76a24.3,24.3,0,0,0-1.16-7.85,16,16,0,0,0-3.8-6.11h0Z" style="fill:#fff"/><path d="M289.79,138.72c3.11,3.23,4.73,7.62,4.73,13.15V174h-4.39V151.87c0-4.38-1.15-7.84-3.46-10.26a11.65,11.65,0,0,0-8.88-3.69,11.9,11.9,0,0,0-9,3.69c-2.19,2.42-3.46,6-3.46,10.61V174H261V152.45c0-5.88,1.61-10.5,4.61-13.73a17.57,17.57,0,0,1,24.22,0" style="fill:#fff"/><path d="M289.79,138.72l-.81.81a15.18,15.18,0,0,1,3.23,5.19,22.07,22.07,0,0,1,1,7v21.11h-2.08v-21a20.7,20.7,0,0,0-.92-6.23,13.05,13.05,0,0,0-2.88-4.84h0a10.41,10.41,0,0,0-4.39-3,13.37,13.37,0,0,0-5.42-1,13.82,13.82,0,0,0-5.42,1,14.13,14.13,0,0,0-4.38,3h0a15,15,0,0,0-2.88,5,22.24,22.24,0,0,0-.92,6.46v20.64h-2.08V152.45a24.57,24.57,0,0,1,1-7.5,15.73,15.73,0,0,1,3.23-5.42h0a13.9,13.9,0,0,1,5-3.34,15.3,15.3,0,0,1,6.22-1.16,16.31,16.31,0,0,1,6.35,1.16,13.86,13.86,0,0,1,4.95,3.34l1.16-.81.8-.8a16.43,16.43,0,0,0-5.76-3.92,17.47,17.47,0,0,0-7.15-1.27,20.62,20.62,0,0,0-7.15,1.27,16.56,16.56,0,0,0-5.77,3.92h0a16.59,16.59,0,0,0-3.8,6.34,25.87,25.87,0,0,0-1.27,8.19v22.83h6.8V152.33a17.27,17.27,0,0,1,.81-5.76,10.61,10.61,0,0,1,2.31-4h0a9.8,9.8,0,0,1,3.57-2.54,10.94,10.94,0,0,1,4.5-.8,13.11,13.11,0,0,1,4.5.8,12.46,12.46,0,0,1,3.57,2.42h0a11.7,11.7,0,0,1,2.31,4,15.89,15.89,0,0,1,.8,5.42v23.41h6.81V151.76a24.28,24.28,0,0,0-1.27-7.85,16.17,16.17,0,0,0-3.81-6.11Z" style="fill:#fff"/><path d="M85.56,170.55a14.7,14.7,0,0,0,11.07-4.61,17.34,17.34,0,0,0,0-23.06,14.36,14.36,0,0,0-10.95-4.73,14.72,14.72,0,0,0-11,4.61,17.52,17.52,0,0,0,0,23.18,14.46,14.46,0,0,0,10.84,4.61m0-36.55a18.81,18.81,0,0,1,14.19,5.88,19.83,19.83,0,0,1,5.65,14.53,19.57,19.57,0,0,1-5.65,14.41c-3.69,3.92-8.42,5.77-14.19,5.77a19.29,19.29,0,0,1-14.18-5.77,19.53,19.53,0,0,1-5.65-14.41,19.79,19.79,0,0,1,5.65-14.53A19.14,19.14,0,0,1,85.56,134" style="fill:#fff"/><path d="M85.56,170.55v1.15a18.2,18.2,0,0,0,6.58-1.26,15.29,15.29,0,0,0,5.3-3.69h0A18.26,18.26,0,0,0,101,161.1a20.71,20.71,0,0,0,0-13.61A15.77,15.77,0,0,0,97.44,142h0a14.94,14.94,0,0,0-5.3-3.8,17.06,17.06,0,0,0-12.92,0,14.94,14.94,0,0,0-5.3,3.8h0a16.29,16.29,0,0,0-3.58,5.65,20.71,20.71,0,0,0,0,13.61,17.27,17.27,0,0,0,3.58,5.65h0a15.52,15.52,0,0,0,5.42,3.69,16.9,16.9,0,0,0,6.45,1.27l-.23-1.27V169.4a14,14,0,0,1-5.53-1,12.38,12.38,0,0,1-4.61-3.23h0a13.92,13.92,0,0,1-3.12-4.73,16.78,16.78,0,0,1-1-6,16.41,16.41,0,0,1,1-6,14.45,14.45,0,0,1,3.12-4.84h0A13.6,13.6,0,0,1,80,140.45a14.33,14.33,0,0,1,5.53-1,14,14,0,0,1,5.54,1,15.45,15.45,0,0,1,4.61,3.23h0a13.53,13.53,0,0,1,3.12,4.85,16,16,0,0,1,1,6,16.88,16.88,0,0,1-1,6,15.89,15.89,0,0,1-3,4.73h0a15.14,15.14,0,0,1-4.5,3.23,15,15,0,0,1-5.65,1l-.12,1Zm0-36.55v1.15a17.74,17.74,0,0,1,13.38,5.53h0a18.26,18.26,0,0,1,4,6.23,20,20,0,0,1,1.38,7.61A19.36,19.36,0,0,1,103,162a18.09,18.09,0,0,1-3.92,6.11h0a16.88,16.88,0,0,1-6,4,18.75,18.75,0,0,1-7.38,1.38,19.61,19.61,0,0,1-7.38-1.38,17.42,17.42,0,0,1-6-4h0a17.77,17.77,0,0,1-4-6.11,19.17,19.17,0,0,1-1.39-7.5,20.17,20.17,0,0,1,1.39-7.61,18.23,18.23,0,0,1,4-6.23h0a19,19,0,0,1,6-4.15,18.56,18.56,0,0,1,7.26-1.38v-2.31a21.43,21.43,0,0,0-8.18,1.5A19.35,19.35,0,0,0,70.57,139h0a20.5,20.5,0,0,0-4.49,6.92,24.38,24.38,0,0,0,0,16.84,22.2,22.2,0,0,0,4.49,6.92h0a19.35,19.35,0,0,0,6.81,4.61,21.43,21.43,0,0,0,8.18,1.5,21.7,21.7,0,0,0,8.31-1.5,19.41,19.41,0,0,0,6.8-4.61h0a22.41,22.41,0,0,0,4.5-6.92,21.65,21.65,0,0,0,1.5-8.3,22.67,22.67,0,0,0-1.5-8.42,22.41,22.41,0,0,0-4.5-6.92h0a19.27,19.27,0,0,0-6.8-4.61,21.29,21.29,0,0,0-8.31-1.5v1Z" style="fill:#fff"/><path d="M236.74,170.55a14.33,14.33,0,0,0,11-4.61,16.32,16.32,0,0,0,4.38-11.53,15.89,15.89,0,0,0-4.5-11.53,14.36,14.36,0,0,0-11-4.73,15.13,15.13,0,0,0-11.07,4.61,15.91,15.91,0,0,0-4.39,11.65,16.28,16.28,0,0,0,4.39,11.53,15.58,15.58,0,0,0,11.18,4.61m0-36.55a19,19,0,0,1,14.19,5.88,19.83,19.83,0,0,1,5.65,14.53,19.57,19.57,0,0,1-5.65,14.41,18.9,18.9,0,0,1-14.19,5.77,19.27,19.27,0,0,1-14.18-5.77,19.62,19.62,0,0,1-5.77-14.41,19.88,19.88,0,0,1,5.77-14.53A19,19,0,0,1,236.74,134" style="fill:#fff"/><path d="M236.74,170.55v1.15a17.1,17.1,0,0,0,6.46-1.26,15.2,15.2,0,0,0,5.3-3.69h0a16.29,16.29,0,0,0,3.58-5.65,20.71,20.71,0,0,0,0-13.61,17.27,17.27,0,0,0-3.58-5.65h0a15.1,15.1,0,0,0-5.3-3.81,17.06,17.06,0,0,0-12.92,0,15.6,15.6,0,0,0-5.42,3.81h0a16.23,16.23,0,0,0-3.57,5.65,20.71,20.71,0,0,0,0,13.61,17.51,17.51,0,0,0,3.57,5.65h0a15.84,15.84,0,0,0,5.42,3.69,17.17,17.17,0,0,0,6.46,1.26v-2.3a14,14,0,0,1-5.53-1,12.49,12.49,0,0,1-4.62-3.23h0a14,14,0,0,1-3.11-4.73,17.8,17.8,0,0,1,0-12,14.58,14.58,0,0,1,3.11-4.84h0a13.73,13.73,0,0,1,4.62-3.12,14.77,14.77,0,0,1,5.53-1,14,14,0,0,1,5.54,1,13.62,13.62,0,0,1,4.49,3.23h0a13.39,13.39,0,0,1,3.12,4.85,16.36,16.36,0,0,1,1,6,16.88,16.88,0,0,1-1,6,15.69,15.69,0,0,1-3,4.73h0a13.28,13.28,0,0,1-10.15,4.26v1Zm0-36.55v1.15a17.74,17.74,0,0,1,13.38,5.53h0a18.23,18.23,0,0,1,4,6.23,19.78,19.78,0,0,1,1.27,7.61,21.67,21.67,0,0,1-1.27,7.5,16.71,16.71,0,0,1-4,6.11h0a15.9,15.9,0,0,1-6,4,18.75,18.75,0,0,1-7.38,1.38,19.61,19.61,0,0,1-7.38-1.38,17.39,17.39,0,0,1-6-4h0a17.65,17.65,0,0,1-4-6.11,19.36,19.36,0,0,1-1.38-7.5,20.36,20.36,0,0,1,1.38-7.61,18.12,18.12,0,0,1,4-6.23,17.71,17.71,0,0,1,6-4.15,18.75,18.75,0,0,1,7.38-1.38v-2.31a21.09,21.09,0,0,0-8.19,1.5,20.56,20.56,0,0,0-6.8,4.61,19.13,19.13,0,0,0-4.5,6.92,24.38,24.38,0,0,0,0,16.84,20.8,20.8,0,0,0,4.62,6.92h0a19.32,19.32,0,0,0,6.8,4.61,21.48,21.48,0,0,0,8.19,1.5,20.09,20.09,0,0,0,15-6.11h0a20.59,20.59,0,0,0,4.5-6.92,22.28,22.28,0,0,0,1.5-8.3,22.87,22.87,0,0,0-1.5-8.42,20.59,20.59,0,0,0-4.5-6.92h0a19.27,19.27,0,0,0-6.8-4.61,21.51,21.51,0,0,0-8.19-1.5l-.12,1Z" style="fill:#fff"/><path d="M212,157.64a10,10,0,0,1,2.08,6.11,9.59,9.59,0,0,1-3.69,7.72,13.65,13.65,0,0,1-9.11,3.12A22.16,22.16,0,0,1,189.46,171l1.5-3.34a25,25,0,0,0,10.84,2.88,8.28,8.28,0,0,0,5.88-2,5.78,5.78,0,0,0,2.31-4.84,5.51,5.51,0,0,0-1.5-3.81c-1-1.15-3.69-2.65-8.07-4.38s-7.27-3.46-8.65-5.19a8.76,8.76,0,0,1-2-5.76A9.74,9.74,0,0,1,193.5,137a13.27,13.27,0,0,1,8.88-3.11,20.75,20.75,0,0,1,10.38,3.23l-1.85,3.46a17.86,17.86,0,0,0-8.76-2.77,9.38,9.38,0,0,0-6,2,5.87,5.87,0,0,0-2.42,4.73,5.23,5.23,0,0,0,1.5,3.69c.92,1.15,3.69,2.54,8.07,4.27s7.27,3.34,8.65,5.19" style="fill:#fff"/><path d="M212,157.64l-.92.69a9.31,9.31,0,0,1,1.84,5.42,7.86,7.86,0,0,1-.81,3.69,10.2,10.2,0,0,1-2.42,3.11h0a13.09,13.09,0,0,1-3.69,2.08,14.36,14.36,0,0,1-4.61.69A21.54,21.54,0,0,1,190.27,170l-.69,1,1.15.46,1.39-3.34-1-.46-.46,1a26.68,26.68,0,0,0,11.3,3,10,10,0,0,0,3.69-.57,9.47,9.47,0,0,0,3-1.62h0a7.19,7.19,0,0,0,2.07-2.53,7.78,7.78,0,0,0,.69-3.23,5.91,5.91,0,0,0-.46-2.42,8.69,8.69,0,0,0-1.38-2.19h0a4.09,4.09,0,0,0-1.27-1.16,21.23,21.23,0,0,0-3-1.73c-1.27-.57-2.65-1.27-4.27-1.84h0a32.67,32.67,0,0,1-5.3-2.54,10.66,10.66,0,0,1-2.88-2.31h0a7.82,7.82,0,0,1-1.73-4.95,7.51,7.51,0,0,1,.8-3.58,9.86,9.86,0,0,1,2.43-3.11h0a12.38,12.38,0,0,1,8.18-2.89,20.09,20.09,0,0,1,9.81,3.12l.57-1-1-.58L210,140l1,.58.57-1a18.81,18.81,0,0,0-9.45-3,10.41,10.41,0,0,0-6.69,2.19h0a9.42,9.42,0,0,0-2.19,2.54,7.24,7.24,0,0,0-.69,3.11,5.11,5.11,0,0,0,.46,2.31,10.38,10.38,0,0,0,1.27,2.08h0a11.62,11.62,0,0,0,1.26,1,17.63,17.63,0,0,0,3,1.62c1.16.58,2.66,1.15,4.27,1.84h0a32.67,32.67,0,0,1,5.3,2.54,10.94,10.94,0,0,1,2.89,2.42l.92-.57.92-.7a13.07,13.07,0,0,0-3.46-3,36.5,36.5,0,0,0-5.65-2.66h0a39,39,0,0,1-5.19-2.3c-.57-.35-1.15-.69-1.61-.93a2.52,2.52,0,0,1-.81-.69h0a4.81,4.81,0,0,1-.92-1.38,3.19,3.19,0,0,1-.35-1.5,4,4,0,0,1,.46-2.08,7,7,0,0,1,1.5-1.73h0a8.51,8.51,0,0,1,5.19-1.61,15.86,15.86,0,0,1,8.19,2.65l1,.58,2.88-5.42-1-.58A22.18,22.18,0,0,0,202.15,133a14.45,14.45,0,0,0-9.69,3.46h0a13.17,13.17,0,0,0-3,3.8,10.46,10.46,0,0,0-1,4.62,10.84,10.84,0,0,0,2.19,6.45h0a12.73,12.73,0,0,0,3.46,2.89,32.63,32.63,0,0,0,5.65,2.65h0c2.19.92,3.92,1.61,5.19,2.31.69.34,1.15.69,1.61.92a7.14,7.14,0,0,1,.92.8h0a5,5,0,0,1,.92,1.39,3,3,0,0,1,.24,1.5,4.65,4.65,0,0,1-.47,2.19,5,5,0,0,1-1.38,1.73h0a6.85,6.85,0,0,1-2.19,1.27,10.86,10.86,0,0,1-2.88.46,24.87,24.87,0,0,1-10.27-2.77l-1-.46L188,171.59l.93.46a22.71,22.71,0,0,0,12.34,3.81,16.58,16.58,0,0,0,5.42-.81,14.67,14.67,0,0,0,4.49-2.54h0a12.58,12.58,0,0,0,3.12-3.92,10.56,10.56,0,0,0,1-4.73,11.89,11.89,0,0,0-2.19-6.8Z" style="fill:#fff"/><path d="M139.42,138.72c3.11,3.23,4.61,7.62,4.61,13.15V174h-4.38V151.87c0-4.38-1.16-7.84-3.46-10.26a12.67,12.67,0,0,0-17.88,0c-2.3,2.42-3.46,6-3.46,10.61V174l-4.49.12V126h4.49v13.72a7.4,7.4,0,0,1,1.39-2.07,16.31,16.31,0,0,1,11-3.92,16.9,16.9,0,0,1,12.23,4.95" style="fill:#fff"/><path d="M139.42,138.72l-.93.81a14.48,14.48,0,0,1,3.23,5.31,21.92,21.92,0,0,1,1.16,7V173H140.8V152a17.71,17.71,0,0,0-.92-6.23,14.37,14.37,0,0,0-2.77-4.84,11,11,0,0,0-4.38-3,13.73,13.73,0,0,0-15.22,3,14.09,14.09,0,0,0-2.89,5,22.63,22.63,0,0,0-.92,6.46h1.15v-1.15a1.57,1.57,0,0,0-.69.23,1.17,1.17,0,0,0-.46.58v.34l.81.12h-.81v21.79h1.15v-1.15h-3.22V127.42h2.07V140l2.19.46-.34-.23.34.23h0l-.34-.23.34.23a6.44,6.44,0,0,1,1.27-1.73l-.92-.8.81.92a14.83,14.83,0,0,1,10.14-3.69,15.52,15.52,0,0,1,6.23,1.15,14,14,0,0,1,5,3.35h0l1-.93.8-.8a16.43,16.43,0,0,0-5.76-3.92,18.17,18.17,0,0,0-7.15-1.27A17.56,17.56,0,0,0,115.55,137h0a13.41,13.41,0,0,0-1.73,2.43l1,.46H116V125H109.2v50.39l6.81-.11V152.45h-1.16l1.16.11v-.11h-1.16l1.16.11-1.16-.11,1.16.23v-.12l-1.16-.11,1.16.23a1.18,1.18,0,1,0-2.31-.46l1.15.23L113.7,152v.23l1.15.23L113.7,152a1.31,1.31,0,0,0,0,.92,1.18,1.18,0,0,0,.69.57,1.24,1.24,0,0,0,.93,0c.34-.11.46-.34.57-.69l-1.15-.34,1,.46v-.12l-1.16-.34,1,.46a1.33,1.33,0,0,0-.58-1.62,1.28,1.28,0,0,0-1.61.46l1,.58-.81-.81-.23.23,1,.58-.81-.81.81.81h1.15a17.27,17.27,0,0,1,.81-5.76,9.34,9.34,0,0,1,2.3-4,9.83,9.83,0,0,1,3.58-2.54,11.48,11.48,0,0,1,4.61-.8,11.65,11.65,0,0,1,4.5.8,11,11,0,0,1,3.57,2.42,10.07,10.07,0,0,1,2.31,4,15.65,15.65,0,0,1,.81,5.42v23.41h6.69V151.75a24.54,24.54,0,0,0-1.27-7.84,17.52,17.52,0,0,0-3.69-6.11h0Z" style="fill:#fff"/><path d="M55.24,126.27h4.95V155c0,8.88-2.42,15.69-6.91,20.53s-10.61,7.26-18,7.26a25.85,25.85,0,0,1-11.42-2.42l1.5-4.49a20.43,20.43,0,0,0,9.92,2.42,19.3,19.3,0,0,0,14.53-6c3.69-3.92,5.53-9.69,5.53-16.95l-.11-29.06Z" style="fill:#fff"/><path d="M55.24,126.27v1.15h3.69V155A35,35,0,0,1,57.2,166.4a21.39,21.39,0,0,1-5,8.3h0a21.83,21.83,0,0,1-7.5,5.19,25.11,25.11,0,0,1-9.57,1.73,26,26,0,0,1-11-2.3l-.47,1,1.16.35,1.61-4.38L25.37,176l-.58,1a21.14,21.14,0,0,0,10.5,2.54,22.88,22.88,0,0,0,8.53-1.62,18.56,18.56,0,0,0,6.8-4.73A19.64,19.64,0,0,0,55,165.48a31,31,0,0,0,1.49-10.15V126.39l-1.26-.12v0H54.08v28.94a29.77,29.77,0,0,1-1.38,9.46,18.76,18.76,0,0,1-3.92,6.8,19.68,19.68,0,0,1-6,4.27,19.93,19.93,0,0,1-7.61,1.38,19.25,19.25,0,0,1-9.34-2.19l-1.27-.69-2.3,6.81.92.46a27.24,27.24,0,0,0,12,2.53,30.83,30.83,0,0,0,10.49-1.84,24.33,24.33,0,0,0,8.42-5.77h0a23.81,23.81,0,0,0,5.42-9.22,39.07,39.07,0,0,0,1.85-12.11V125.23H54.08v1.16l1.16-.12Z" style="fill:#fff"/></g></g></svg>